<?xml version="1.0" encoding="UTF-8"?>
<!DOCTYPE svg PUBLIC "-//W3C//DTD SVG 1.1//EN" "http://www.w3.org/Graphics/SVG/1.1/DTD/svg11.dtd">
<!-- Creator: CorelDRAW 2020 (64 Bit) -->
<svg xmlns="http://www.w3.org/2000/svg" xml:space="preserve" width="585px" height="136px" version="1.1" style="shape-rendering:geometricPrecision; text-rendering:geometricPrecision; image-rendering:optimizeQuality; fill-rule:evenodd; clip-rule:evenodd"
viewBox="0 0 690 160"
 xmlns:xlink="http://www.w3.org/1999/xlink"
 xmlns:xodm="http://www.corel.com/coreldraw/odm/2003">
 <defs>
  <style type="text/css">
   <![CDATA[
    .fil0 {fill:#FEFEFE}
   ]]>
  </style>
 </defs>
 <g id="Camada_x0020_1">
  <metadata id="CorelCorpID_0Corel-Layer"/>
  <path class="fil0" d="M211 78l0 -10c0,-4 1,-8 4,-11 4,-3 7,-4 11,-4l0 -26c-5,0 -10,1 -15,3l0 -3 0 -11 -26 0 0 11 0 41 0 0 0 10c0,11 4,21 12,29 8,8 18,12 29,12l0 -26c-4,0 -7,-1 -11,-4 -3,-3 -4,-7 -4,-11zm443 -6l0 -6 0 -26 0 0 -25 26 0 0 0 3c8,0 17,0 25,3zm-12 -42c-8,0 -13,-6 -13,-13 0,-7 5,-13 13,-13 7,0 12,6 12,13 0,7 -5,13 -12,13zm-51 89l0 -14 14 14 24 0 13 0 12 0 0 -18 0 -9c-7,-2 -16,-2 -25,-2l0 2 0 9 0 5 -27 -26 40 -40 -37 0 -14 14 0 -54 -22 0 -4 0 0 119 26 0 0 0zm74 -44l0 -1 0 -15 0 -19 25 0 0 19 0 21 0 15 0 22c-7,-12 -16,-19 -25,-23l0 1 0 24 25 0 0 -2c0,-23 -11,-36 -25,-42zm12 -45c-7,0 -12,-6 -12,-13 0,-7 5,-13 12,-13 8,0 13,6 13,13 0,7 -5,13 -13,13zm-399 36c-5,0 -8,1 -11,4 -3,3 -5,7 -5,11l0 38 -26 0 0 -38c0,-11 4,-21 13,-29 8,-8 17,-12 29,-12l0 26zm-129 15c0,-4 -1,-8 -4,-11 -3,-3 -7,-4 -11,-4 -4,0 -8,1 -11,4 -3,3 -5,7 -5,11l0 12 0 13 0 13 -13 0 -12 0 0 -12c0,0 0,0 0,-1 0,0 0,0 0,0l0 -13 0 -12 0 0c0,-11 4,-21 12,-29 8,-8 17,-12 29,-12 11,0 21,4 29,12 8,8 12,18 12,29l0 12 0 13c0,0 0,0 0,0 0,1 0,1 0,1l0 12 -13 0 -13 0 0 -13 0 -13 0 -12zm288 -3c0,-4 -2,-8 -5,-11 -3,-3 -6,-4 -11,-4 -4,0 -7,1 -10,4 -3,3 -5,7 -5,11 0,4 2,8 5,11 3,3 6,4 10,4 5,0 8,-1 11,-4 3,-3 5,-7 5,-11zm-31 41c0,4 2,8 5,11 3,3 6,5 10,5 5,0 8,-2 11,-5 3,-3 5,-7 5,-11l0 -3c-5,2 -10,3 -16,3 -11,0 -20,-4 -29,-12 -8,-8 -12,-18 -12,-29 0,-11 4,-21 12,-29 9,-8 18,-12 29,-12 12,0 22,4 30,12 8,8 12,18 12,29l0 41c0,12 -4,21 -12,29 -8,8 -18,12 -30,12 -11,0 -20,-4 -29,-12 -8,-8 -12,-17 -12,-29l26 0zm123 -41c0,-4 -1,-8 -4,-11 -3,-3 -7,-4 -11,-4 -4,0 -8,1 -11,4 -3,3 -4,7 -4,11 0,4 1,8 4,11 3,3 7,4 11,4 4,0 8,-1 11,-4 3,-3 4,-7 4,-11zm-15 41l41 0 0 -41c0,-11 -4,-21 -12,-29 -8,-8 -18,-12 -29,-12 -11,0 -21,4 -29,12 -8,8 -12,18 -12,29 0,11 4,21 12,29 8,8 18,12 29,12zm-171 -47c-1,-2 -2,-3 -3,-5 -3,-3 -7,-4 -11,-4 -4,0 -8,1 -11,4 -1,2 -2,3 -3,5l28 0zm-28 12c1,2 2,4 3,5 3,3 7,4 11,4l38 0c-2,5 -5,10 -9,14 -8,8 -18,12 -29,12 -11,0 -21,-4 -29,-12 -8,-8 -12,-18 -12,-29 0,-11 4,-21 12,-29 8,-8 18,-12 29,-12 11,0 21,4 29,12 8,8 12,18 12,29 0,2 0,4 0,6l-27 0 -14 0 -14 0zm-260 -12c0,-2 -2,-3 -3,-5 -3,-3 -7,-4 -11,-4 -4,0 -8,1 -11,4 -1,2 -2,3 -3,5l28 0zm-28 12c1,2 2,4 3,5 3,3 7,4 11,4l39 0c-2,5 -6,10 -10,14 -8,8 -17,12 -29,12 -11,0 -21,-4 -29,-12 -8,-8 -12,-18 -12,-29 0,-11 4,-21 12,-29 8,-8 18,-12 29,-12 12,0 21,4 29,12 8,8 12,18 12,29 0,2 0,4 0,6l-27 0 -14 0 -14 0z"/>
 </g>
</svg>
